<?xml version="1.0" encoding="UTF-8" standalone="no"?>
<svg
   xmlns:dc="http://purl.org/dc/elements/1.1/"
   xmlns:cc="http://creativecommons.org/ns#"
   xmlns:rdf="http://www.w3.org/1999/02/22-rdf-syntax-ns#"
   xmlns:svg="http://www.w3.org/2000/svg"
   xmlns="http://www.w3.org/2000/svg"
   xmlns:sodipodi="http://sodipodi.sourceforge.net/DTD/sodipodi-0.dtd"
   xmlns:inkscape="http://www.inkscape.org/namespaces/inkscape"
   width="48px"
   viewBox="0 0 48 48"
   fill="none"
   version="1.1"
   id="svg11"
   sodipodi:docname="logo.svg"
   inkscape:version="0.92.5 (2060ec1f9f, 2020-04-08)">
  <metadata
     id="metadata15">
    <rdf:RDF>
      <cc:Work
         rdf:about="">
        <dc:format>image/svg+xml</dc:format>
        <dc:type
           rdf:resource="http://purl.org/dc/dcmitype/StillImage" />
      </cc:Work>
    </rdf:RDF>
  </metadata>
  <sodipodi:namedview
     pagecolor="#ffffff"
     bordercolor="#666666"
     borderopacity="1"
     objecttolerance="10"
     gridtolerance="10"
     guidetolerance="10"
     inkscape:pageopacity="0"
     inkscape:pageshadow="2"
     inkscape:window-width="902"
     inkscape:window-height="480"
     id="namedview13"
     showgrid="false"
     inkscape:zoom="4.9166667"
     inkscape:cx="24"
     inkscape:cy="24"
     inkscape:window-x="72"
     inkscape:window-y="27"
     inkscape:window-maximized="0"
     inkscape:current-layer="svg11" />
  <path
     fill-rule="evenodd"
     clip-rule="evenodd"
     d="M0 23.9999C0 21.4839 0 19.5351 0.0562342 17.9437C1.99403 17.8752 3.40189 17.7234 4.65873 17.3866C10.8704 15.7222 15.7222 10.8704 17.3866 4.65873C17.7234 3.40189 17.8752 1.99403 17.9437 0.0562342C19.5351 0 21.4839 0 23.9999 0C29.5797 0 32.3696 0 34.6586 0.613334C40.8703 2.27774 45.7221 7.12958 47.3865 13.3412C47.9998 15.6302 47.9998 18.4201 47.9998 23.9999C47.9998 29.5797 47.9998 32.3696 47.3865 34.6586C45.7221 40.8703 40.8703 45.7221 34.6586 47.3865C32.3696 47.9998 29.5797 47.9998 23.9999 47.9998C18.4201 47.9998 15.6302 47.9998 13.3412 47.3865C7.12958 45.7221 2.27774 40.8703 0.613334 34.6586C0 32.3696 0 29.5797 0 23.9999ZM7.46649 27.4221C7.46649 30.9332 10.3109 33.8221 13.8665 33.8221C17.422 33.8221 20.2665 30.9332 20.2665 27.4221C20.2665 23.911 17.3776 21.0221 13.8665 21.0221C10.3554 21.0221 7.46649 23.911 7.46649 27.4221ZM28.4442 27.4221C28.4442 30.9332 31.2886 33.8221 34.8442 33.8221C38.3997 33.8221 41.2442 30.9332 41.2442 27.4221C41.2442 23.911 38.3553 21.0221 34.8442 21.0221C31.3331 21.0221 28.4442 23.911 28.4442 27.4221Z"
     class="sc-cTQhss bmzbHh"
     id="path2"
     style="fill:#146deb;fill-opacity:1" />
  <defs
     id="defs9">
    <linearGradient
       id="nibble-gradient-svg"
       x1="24.0024"
       y1="52.2036"
       x2="24.0024"
       y2="-4.52267"
       gradientUnits="userSpaceOnUse">
      <stop
         stop-color="#236BFB"
         id="stop4" />
      <stop
         offset="1"
         stop-color="#259BFA"
         id="stop6" />
    </linearGradient>
  </defs>
</svg>
